<?xml version="1.0" encoding="UTF-8"?>
<svg width="80px" height="80px" viewBox="0 0 80 80" version="1.1" xmlns="http://www.w3.org/2000/svg" xmlns:xlink="http://www.w3.org/1999/xlink">
    <!-- Generator: Sketch 43.2 (39069) - http://www.bohemiancoding.com/sketch -->
    <title>Icon</title>
    <desc>Created with Sketch.</desc>
    <defs></defs>
    <g id="Page-1" stroke="none" stroke-width="1" fill="none" fill-rule="evenodd">
        <g id="Icon" fill="#000000">
            <path d="M68.9537091,80 L11.0462909,80 C4.97221167,80 0,75.0277883 0,68.9537091 L0,11.0462909 C0,4.97083089 4.97221167,0 11.0462909,0 L68.9537091,0 C75.0291691,0 80,4.97083089 80,11.0462909 L80,68.9537091 C80,75.0277883 75.0291691,80 68.9537091,80 Z M47.7025786,68.5423729 C50.2694605,68.5423729 53.1608271,67.2651455 56.3766785,64.7106907 C59.5925299,62.1548552 61.4690186,59.7343367 62.0020021,57.4463737 L61.7727916,55.8059995 L60.8573302,55.1584107 L59.8286444,57.2171632 C57.3887949,60.1402879 55.8492181,61.8055162 55.2140564,62.2128482 C55.0621699,62.3136456 53.3707066,62.4917671 50.1438089,62.7472125 L50.0664849,59.0108047 L52.0492941,52.2601401 C54.2613138,45.1173323 55.3673237,40.7443819 55.3673237,39.1426698 L55.3286617,38.5696434 C55.074597,36.2319721 53.6634333,34.4783734 51.0965515,33.3074666 C53.4604577,29.9783907 54.9972729,27.7470399 55.7111395,26.6161759 C56.4208637,25.4839311 56.7771066,24.2964548 56.7771066,23.0509855 C56.7771066,21.3470952 56.2496462,19.9235044 55.1961062,18.7788325 C54.1398046,17.6355414 52.9385205,17.0638959 51.590873,17.0638959 C50.3716386,17.0638959 49.037799,17.5471711 47.5879734,18.5123408 C46.7733094,19.0715593 44.7794539,20.9287169 41.6022645,24.0796714 L36.2241016,29.7616072 L36.4160309,29.9521558 L36.3787497,29.8375505 C36.2765715,29.1512997 36.2130553,26.2157479 36.1868204,21.0295143 C36.1868204,17.2668715 35.601367,14.077255 34.4332217,11.4579033 L23.4131658,26.0624806 L24.0994166,26.7873934 L29.2469882,24.8432462 C29.5272878,28.0715247 29.6653664,30.9946495 29.6653664,33.6126204 C29.6653664,37.4774414 29.3615934,40.6546308 28.7512859,43.1455694 C27.2255169,49.3245884 23.6409955,54.2553764 17.9977217,57.942076 C18.7102075,58.0953433 19.2694259,58.1699058 19.6753771,58.1699058 C20.3381546,58.1699058 22.0020021,57.1798819 24.6710622,55.1970727 C31.3830647,50.2386689 34.928924,44.0237495 35.3100211,36.549553 C35.3611102,35.3551728 35.5516587,34.4521385 35.8816666,33.8418309 C36.0349339,33.511823 39.4413338,29.9908178 46.1008664,23.2788153 C48.2866512,24.7797301 49.4686044,26.4698126 49.6467258,28.3504436 L49.6853878,28.8461459 C49.6853878,30.5500362 48.8458697,32.1255135 47.1682143,33.5753392 L40.1524388,39.7902586 C40.635714,40.0705582 41.1065622,40.2100176 41.5649833,40.2100176 L41.9446995,40.1727364 C42.9374849,39.9946149 43.8004764,39.9048638 44.5378163,39.9048638 C45.8592288,39.9048638 46.7166972,40.2417757 47.1102213,40.9155994 C47.5051262,41.5894232 47.7025786,42.6001588 47.7025786,43.9478063 L47.6652974,44.9005489 C47.5106493,47.2658359 46.5316718,51.5366081 44.7283648,57.7128655 C43.5588388,61.6273948 42.9747661,64.1694225 42.9747661,65.3403293 C42.9747661,66.5084746 43.35034,67.3217577 44.100107,67.7801788 C44.849874,68.2372191 45.9738341,68.4912838 47.4733681,68.5423729 L47.7025786,68.5423729 Z" id="scrip"></path>
        </g>
    </g>
</svg>